<svg width="24" height="24" viewBox="0 0 24 24" fill="none" xmlns="http://www.w3.org/2000/svg">
<path d="M23.9903 6.12544C23.9903 5.38742 23.928 4.6524 23.7518 3.93387C23.4353 2.62508 22.689 1.6253 21.5723 0.891028C20.9978 0.516016 20.3656 0.285759 19.6936 0.164255C19.1776 0.0739654 18.6553 0.0243115 18.1314 0.0157505C18.0924 0.0120004 18.0497 0.00375012 18.0062 0H5.98331C5.83107 0.0120004 5.67882 0.0195006 5.52658 0.0270008C4.78035 0.0697522 4.03862 0.147755 3.33515 0.429013C1.99944 0.95628 1.03422 1.87806 0.471735 3.20635C0.276741 3.65561 0.178494 4.13188 0.108747 4.61639C0.0502484 5.00716 0.0187494 5.40167 0.00749977 5.79618C0.00749977 5.82768 0 5.85843 0 5.88993V18.1131L0.0232493 18.5353C0.0742477 19.3521 0.179244 20.1606 0.523484 20.9107C1.17221 22.3289 2.26193 23.262 3.75813 23.7112C4.17587 23.8402 4.61386 23.8987 5.05109 23.9377C5.60607 23.9925 6.16031 24 6.71529 24H17.7459C18.2694 24 18.7929 23.9647 19.3164 23.8987C20.1406 23.793 20.9138 23.5507 21.6136 23.0902C22.4418 22.5536 23.0949 21.7863 23.4923 20.8829C23.6798 20.4606 23.7855 20.0121 23.8635 19.5584C23.9768 18.8826 24 18.1986 24 17.5153C23.9963 13.7179 24 9.92131 23.9963 6.12394L23.9903 6.12544ZM17.5682 10.1133V15.8247C17.5682 16.2425 17.5097 16.6528 17.3222 17.0315C17.0335 17.621 16.5647 17.9923 15.9355 18.1723C15.5869 18.2722 15.2276 18.3299 14.8653 18.3441C14.4096 18.371 13.96 18.2294 13.602 17.9463C13.2439 17.6632 13.0025 17.2584 12.9236 16.8088C12.8513 16.4043 12.9138 15.9872 13.1014 15.6217C13.2891 15.2561 13.5915 14.9623 13.9623 14.7852C14.2826 14.6292 14.6305 14.5355 14.9778 14.465C15.3565 14.3832 15.7353 14.3089 16.1102 14.2227C16.3877 14.1604 16.567 13.9924 16.6217 13.7067C16.6375 13.6444 16.6412 13.5777 16.6412 13.5154V8.07025C16.6399 8.00812 16.6308 7.94639 16.6142 7.8865C16.5752 7.73424 16.4657 7.64424 16.3097 7.65174C16.1492 7.65924 15.9933 7.68699 15.8373 7.71849C15.0753 7.867 14.3141 8.01925 13.5558 8.17525L9.85694 8.92153C9.84119 8.92528 9.82169 8.93353 9.80594 8.93353C9.52845 9.01153 9.43096 9.13679 9.41896 9.42554C9.41521 9.4683 9.41896 9.5118 9.41896 9.55455C9.41521 12.1564 9.41896 14.7582 9.41521 17.3593C9.41521 17.7816 9.36796 18.1956 9.20071 18.5856C8.92322 19.2261 8.43124 19.6289 7.76751 19.8201C7.41662 19.9223 7.0543 19.98 6.68904 19.9919C5.73207 20.0271 4.93485 19.3904 4.77135 18.4491C4.63036 17.6368 5.00159 16.7615 5.92332 16.3708C6.28255 16.2223 6.65379 16.1405 7.03253 16.0625L7.892 15.887C8.27449 15.8052 8.47398 15.563 8.49348 15.1722V15.0237V6.14044C8.49348 6.01519 8.50923 5.89068 8.53623 5.76918C8.60673 5.48417 8.80997 5.31992 9.08297 5.25316C9.33721 5.18641 9.59895 5.13991 9.85619 5.08516C10.5904 4.93665 11.3209 4.78815 12.0551 4.64339L14.3246 4.18213C14.9965 4.04938 15.664 3.91287 16.336 3.78012C16.555 3.73737 16.7777 3.69012 16.9997 3.67436C17.308 3.64736 17.5232 3.84237 17.5547 4.15513C17.5622 4.22938 17.5667 4.30363 17.5667 4.37789V10.1088L17.5682 10.1133Z" fill="white"/>
</svg>
