<svg width="24" height="24" viewBox="0 0 24 24" fill="none" xmlns="http://www.w3.org/2000/svg">
<path d="M12.0006 0C5.40033 0 0 5.40033 0 12.0006C0 18.5997 5.40033 24 12.0006 24C18.5997 24 24 18.5997 24 12.0006C24 5.40033 18.6597 0 12.0006 0ZM17.5198 17.3397C17.2808 17.6988 16.8604 17.8201 16.4989 17.5811C13.6774 15.8394 10.1376 15.4791 5.93724 16.4388C5.51924 16.5613 5.1589 16.261 5.03879 15.8995C4.91747 15.4791 5.21776 15.1212 5.5793 14.9999C10.1376 13.9789 14.099 14.4005 17.2184 16.3211C17.6388 16.5001 17.6988 16.9793 17.5198 17.3397ZM18.9612 14.0401C18.6597 14.4593 18.1204 14.6395 17.6988 14.3392C14.4593 12.3621 9.54066 11.7592 5.76067 12.9603C5.28262 13.0816 4.7397 12.8402 4.62079 12.3621C4.49948 11.8793 4.7409 11.3388 5.22016 11.2187C9.59952 9.89981 15.0011 10.5604 18.7198 12.8414C19.0801 13.0204 19.2603 13.6197 18.9612 14.0401ZM19.0801 10.6781C15.2401 8.39958 8.81998 8.15935 5.1589 9.30164C4.88048 9.38186 4.58186 9.35174 4.32507 9.21753C4.06828 9.08332 3.87307 8.85534 3.77999 8.58095C3.69834 8.3022 3.72762 8.00267 3.86171 7.74501C3.9958 7.48735 4.22432 7.2915 4.49947 7.19844C8.75992 5.93844 15.7806 6.17747 20.2212 8.82118C20.7605 9.12026 20.9407 9.84095 20.6404 10.3803C20.3401 10.8007 19.6206 10.9784 19.0801 10.6781Z" fill="white"/>
</svg>
