<svg width="12" height="18" viewBox="0 0 12 18" fill="none" xmlns="http://www.w3.org/2000/svg">
<path fill-rule="evenodd" clip-rule="evenodd" d="M8.03281 14.6543C10.1156 11.507 12 8.6594 12 6.13636C12 2.74734 9.31371 0 6 0C2.68629 0 0 2.74734 0 6.13636C0 9.28036 2.58188 13.1044 5.25965 17.0704C5.46834 17.3795 5.67761 17.6894 5.88629 18C6.57971 16.8501 7.31794 15.7346 8.03281 14.6543ZM6 10C7.65685 10 9 8.65685 9 7C9 5.34315 7.65685 4 6 4C4.34315 4 3 5.34315 3 7C3 8.65685 4.34315 10 6 10Z" fill="#656565"/>
</svg>
