<svg width="38" height="24" viewBox="0 0 38 24" fill="none" xmlns="http://www.w3.org/2000/svg">
<path d="M29.2292 0V4.63805H37.2305V0H29.2292ZM9.89672 6.4596V11.0931H17.8964V6.4596H9.89518H9.89672ZM29.2292 6.4596V11.0931H37.2305V6.4596H29.2292ZM9.89672 12.91V17.5435H17.8964V12.91H9.89518H9.89672ZM19.5645 12.91V17.5435H27.5658V12.91H19.5645ZM29.2308 12.91V17.5435H37.2305V12.91H29.2292H29.2308ZM0.230469 19.3635V24H8.23172V19.3619H0.230469V19.3635ZM9.89672 19.3635V24H17.8964V19.3619H9.89518L9.89672 19.3635ZM19.5645 19.3635V24H27.5658V19.3619H19.5645V19.3635ZM29.2308 19.3635V24H37.2305V19.3619H29.2292L29.2308 19.3635Z" fill="white"/>
</svg>
