<svg width="32" height="32" viewBox="0 0 32 32" fill="none" xmlns="http://www.w3.org/2000/svg">
<g style="mix-blend-mode:luminosity">
<path d="M15.717 28.3333C21.1785 28.3333 25.6059 23.9114 25.6059 18.4566C25.6059 13.0018 21.1785 8.57983 15.717 8.57983C10.2555 8.57983 5.82812 13.0018 5.82812 18.4566C5.82812 23.9114 10.2555 28.3333 15.717 28.3333Z" fill="#FFCC00"/>
<path fill-rule="evenodd" clip-rule="evenodd" d="M20.6687 8.38893L20.6688 17.6287L20.647 17.636C20.647 17.6399 20.647 17.6439 20.647 17.6478C20.647 18.5516 20.5814 19.3946 20.4589 19.8248C19.8696 21.894 17.9632 23.3948 15.7025 23.3948C12.9718 23.3948 10.7871 21.1911 10.7871 18.4637C10.7871 15.7363 12.9718 13.5325 15.7025 13.5325C16.9892 13.5325 18.1611 14.0234 19.0407 14.8278C19.3281 15.0907 19.5843 15.387 19.8031 15.7106C19.7424 15.4209 19.6826 15.0566 19.6826 14.7452V7.58428V3.63647L26.1182 5.60603V10.0665L20.6687 8.38893Z" fill="#FF3333"/>
</g>
</svg>
