<svg width="34" height="24" viewBox="0 0 34 24" fill="none" xmlns="http://www.w3.org/2000/svg">
<path d="M32.5372 3.74904C32.3481 3.02308 31.9772 2.36104 31.4617 1.82918C30.9462 1.29733 30.3042 0.914313 29.5999 0.718471C27.0074 1.45785e-07 16.6154 0 16.6154 0C16.6154 0 6.22335 -1.45785e-07 3.63091 0.71465C2.92631 0.909856 2.28397 1.29266 1.76837 1.82461C1.25278 2.35656 0.882096 3.01894 0.693544 3.74522C-1.41479e-07 6.42038 0 12 0 12C0 12 -1.41479e-07 17.5796 0.693544 20.251C1.07555 21.7261 2.20302 22.8879 3.63091 23.2815C6.22335 24 16.6154 24 16.6154 24C16.6154 24 27.0074 24 29.5999 23.2815C31.0315 22.8879 32.1552 21.7261 32.5372 20.251C33.2308 17.5796 33.2308 12 33.2308 12C33.2308 12 33.2308 6.42038 32.5372 3.74904ZM13.3146 17.121V6.87898L21.919 11.9618L13.3146 17.121Z" fill="white"/>
</svg>
